<svg width="27" height="27" viewBox="0 0 27 27" fill="none" xmlns="http://www.w3.org/2000/svg">
<rect width="27" height="27" rx="3" fill="#503E9D"/>
<path d="M10.5614 14.066C10.3827 14.2214 10.1783 14.3932 9.96193 14.5751C8.366 15.9167 6.18031 17.754 6.18031 19.6852V20.8473C6.18031 22.0875 7.18928 23.0964 8.42946 23.0964H18.5507C19.7908 23.0964 20.7998 22.0875 20.7998 20.8473V19.6852C20.7998 17.754 18.6141 15.9167 17.0182 14.5751C16.8018 14.3932 16.5975 14.2214 16.4188 14.066C16.2489 13.9182 16.1516 13.712 16.1516 13.5C16.1516 13.2881 16.2489 13.0818 16.4187 12.9341C16.5974 12.7787 16.8018 12.6069 17.0182 12.425C18.6141 11.0834 20.7998 9.24611 20.7998 7.31488V6.15282C20.7998 4.91263 19.7908 3.90366 18.5507 3.90366H8.42946C7.18928 3.90366 6.18031 4.91263 6.18031 6.15282C6.18031 6.56688 6.51596 6.90253 6.93003 6.90253C7.3441 6.90253 7.67975 6.56688 7.67975 6.15282C7.67975 5.73942 8.01607 5.4031 8.42946 5.4031H18.5507C18.964 5.4031 19.3004 5.73942 19.3004 6.15282V7.31488C19.3004 8.54771 17.2678 10.2563 16.0533 11.2772C15.832 11.4633 15.6228 11.6391 15.4346 11.8029C14.9373 12.2355 14.6521 12.8541 14.6521 13.5C14.6521 14.146 14.9373 14.7645 15.4346 15.1972C15.6229 15.361 15.832 15.5368 16.0533 15.7229C17.2678 16.7438 19.3004 18.4524 19.3004 19.6852V20.8473C19.3004 21.2607 18.964 21.597 18.5507 21.597H8.42946C8.01607 21.597 7.67975 21.2607 7.67975 20.8473V19.6852C7.67975 18.4524 9.71234 16.7438 10.9268 15.7229C11.1481 15.5368 11.3573 15.361 11.5456 15.1971C12.0428 14.7645 12.328 14.1459 12.328 13.5C12.328 12.8541 12.0428 12.2355 11.5456 11.8029C11.3493 11.6322 11.1307 11.4492 10.8991 11.2554C10.1698 10.6449 9.34311 9.95295 8.69063 9.21672C8.41601 8.90687 7.94222 8.87838 7.63229 9.15292C7.32243 9.42758 7.29387 9.90137 7.56849 10.2113C8.29508 11.031 9.20531 11.7929 9.93674 12.4052C10.1626 12.5942 10.376 12.7728 10.5614 12.9341C10.7312 13.0819 10.8286 13.2881 10.8286 13.5C10.8286 13.712 10.7312 13.9183 10.5614 14.066Z" fill="white"/>
</svg>
