<svg width="115" height="27" viewBox="0 0 115 27" fill="none" xmlns="http://www.w3.org/2000/svg">
<path d="M54.7365 7.9061L50.5605 20.5061H48.0765L44.9625 11.1821L41.7945 20.5061H39.2925L35.1165 7.9061H37.5465L40.6785 17.4821L43.9365 7.9061H46.0965L49.2825 17.5361L52.5045 7.9061H54.7365ZM59.3781 10.7861C60.7941 10.7861 61.8741 11.1281 62.6181 11.8121C63.3741 12.4841 63.7521 13.5041 63.7521 14.8721V20.5061H61.6281V19.3361C61.3521 19.7561 60.9561 20.0801 60.4401 20.3081C59.9361 20.5241 59.3241 20.6321 58.6041 20.6321C57.8841 20.6321 57.2541 20.5121 56.7141 20.2721C56.1741 20.0201 55.7541 19.6781 55.4541 19.2461C55.1661 18.8021 55.0221 18.3041 55.0221 17.7521C55.0221 16.8881 55.3401 16.1981 55.9761 15.6821C56.6241 15.1541 57.6381 14.8901 59.0181 14.8901H61.5021V14.7461C61.5021 14.0741 61.2981 13.5581 60.8901 13.1981C60.4941 12.8381 59.9001 12.6581 59.1081 12.6581C58.5681 12.6581 58.0341 12.7421 57.5061 12.9101C56.9901 13.0781 56.5521 13.3121 56.1921 13.6121L55.3101 11.9741C55.8141 11.5901 56.4201 11.2961 57.1281 11.0921C57.8361 10.8881 58.5861 10.7861 59.3781 10.7861ZM59.0721 18.9941C59.6361 18.9941 60.1341 18.8681 60.5661 18.6161C61.0101 18.3521 61.3221 17.9801 61.5021 17.5001V16.3841H59.1801C57.8841 16.3841 57.2361 16.8101 57.2361 17.6621C57.2361 18.0701 57.3981 18.3941 57.7221 18.6341C58.0461 18.8741 58.4961 18.9941 59.0721 18.9941ZM66.6397 10.8941H68.8897V20.5061H66.6397V10.8941ZM67.7737 9.3101C67.3657 9.3101 67.0237 9.1841 66.7477 8.9321C66.4717 8.6681 66.3337 8.3441 66.3337 7.9601C66.3337 7.5761 66.4717 7.2581 66.7477 7.0061C67.0237 6.7421 67.3657 6.6101 67.7737 6.6101C68.1817 6.6101 68.5237 6.7361 68.7997 6.9881C69.0757 7.2281 69.2137 7.5341 69.2137 7.9061C69.2137 8.3021 69.0757 8.6381 68.7997 8.9141C68.5357 9.1781 68.1937 9.3101 67.7737 9.3101ZM77.6209 19.9841C77.3569 20.2001 77.0329 20.3621 76.6489 20.4701C76.2769 20.5781 75.8809 20.6321 75.4609 20.6321C74.4049 20.6321 73.5889 20.3561 73.0129 19.8041C72.4369 19.2521 72.1489 18.4481 72.1489 17.3921V12.7661H70.5649V10.9661H72.1489V8.7701H74.3989V10.9661H76.9729V12.7661H74.3989V17.3381C74.3989 17.8061 74.5129 18.1661 74.7409 18.4181C74.9689 18.6581 75.2989 18.7781 75.7309 18.7781C76.2349 18.7781 76.6549 18.6461 76.9909 18.3821L77.6209 19.9841ZM79.4718 7.1501H81.7218V20.5061H79.4718V7.1501ZM93.7109 15.7541C93.7109 15.9101 93.6989 16.1321 93.6749 16.4201H86.1329C86.2649 17.1281 86.6069 17.6921 87.1589 18.1121C87.7229 18.5201 88.4189 18.7241 89.2469 18.7241C90.3029 18.7241 91.1729 18.3761 91.8569 17.6801L93.0629 19.0661C92.6309 19.5821 92.0849 19.9721 91.4249 20.2361C90.7649 20.5001 90.0209 20.6321 89.1929 20.6321C88.1369 20.6321 87.2069 20.4221 86.4029 20.0021C85.5989 19.5821 84.9749 19.0001 84.5309 18.2561C84.0989 17.5001 83.8829 16.6481 83.8829 15.7001C83.8829 14.7641 84.0929 13.9241 84.5129 13.1801C84.9449 12.4241 85.5389 11.8361 86.2949 11.4161C87.0509 10.9961 87.9029 10.7861 88.8509 10.7861C89.7869 10.7861 90.6209 10.9961 91.3529 11.4161C92.0969 11.8241 92.6729 12.4061 93.0809 13.1621C93.5009 13.9061 93.7109 14.7701 93.7109 15.7541ZM88.8509 12.5861C88.1309 12.5861 87.5189 12.8021 87.0149 13.2341C86.5229 13.6541 86.2229 14.2181 86.1149 14.9261H91.5689C91.4729 14.2301 91.1789 13.6661 90.6869 13.2341C90.1949 12.8021 89.5829 12.5861 88.8509 12.5861ZM98.8422 20.6321C98.0622 20.6321 97.3002 20.5301 96.5562 20.3261C95.8122 20.1221 95.2182 19.8641 94.7742 19.5521L95.6382 17.8421C96.0702 18.1301 96.5862 18.3641 97.1862 18.5441C97.7982 18.7121 98.3982 18.7961 98.9862 18.7961C100.33 18.7961 101.002 18.4421 101.002 17.7341C101.002 17.3981 100.828 17.1641 100.48 17.0321C100.144 16.9001 99.5982 16.7741 98.8422 16.6541C98.0502 16.5341 97.4022 16.3961 96.8982 16.2401C96.4062 16.0841 95.9742 15.8141 95.6022 15.4301C95.2422 15.0341 95.0622 14.4881 95.0622 13.7921C95.0622 12.8801 95.4402 12.1541 96.1962 11.6141C96.9642 11.0621 97.9962 10.7861 99.2922 10.7861C99.9522 10.7861 100.612 10.8641 101.272 11.0201C101.932 11.1641 102.472 11.3621 102.892 11.6141L102.028 13.3241C101.212 12.8441 100.294 12.6041 99.2742 12.6041C98.6142 12.6041 98.1102 12.7061 97.7622 12.9101C97.4262 13.1021 97.2582 13.3601 97.2582 13.6841C97.2582 14.0441 97.4382 14.3021 97.7982 14.4581C98.1702 14.6021 98.7402 14.7401 99.5082 14.8721C100.276 14.9921 100.906 15.1301 101.398 15.2861C101.89 15.4421 102.31 15.7061 102.658 16.0781C103.018 16.4501 103.198 16.9781 103.198 17.6621C103.198 18.5621 102.808 19.2821 102.028 19.8221C101.248 20.3621 100.186 20.6321 98.8422 20.6321ZM108.106 20.6321C107.326 20.6321 106.564 20.5301 105.82 20.3261C105.076 20.1221 104.482 19.8641 104.038 19.5521L104.902 17.8421C105.334 18.1301 105.85 18.3641 106.45 18.5441C107.062 18.7121 107.662 18.7961 108.25 18.7961C109.594 18.7961 110.266 18.4421 110.266 17.7341C110.266 17.3981 110.092 17.1641 109.744 17.0321C109.408 16.9001 108.862 16.7741 108.106 16.6541C107.314 16.5341 106.666 16.3961 106.162 16.2401C105.67 16.0841 105.238 15.8141 104.866 15.4301C104.506 15.0341 104.326 14.4881 104.326 13.7921C104.326 12.8801 104.704 12.1541 105.46 11.6141C106.228 11.0621 107.26 10.7861 108.556 10.7861C109.216 10.7861 109.876 10.8641 110.536 11.0201C111.196 11.1641 111.736 11.3621 112.156 11.6141L111.292 13.3241C110.476 12.8441 109.558 12.6041 108.538 12.6041C107.878 12.6041 107.374 12.7061 107.026 12.9101C106.69 13.1021 106.522 13.3601 106.522 13.6841C106.522 14.0441 106.702 14.3021 107.062 14.4581C107.434 14.6021 108.004 14.7401 108.772 14.8721C109.54 14.9921 110.17 15.1301 110.662 15.2861C111.154 15.4421 111.574 15.7061 111.922 16.0781C112.282 16.4501 112.462 16.9781 112.462 17.6621C112.462 18.5621 112.072 19.2821 111.292 19.8221C110.512 20.3621 109.45 20.6321 108.106 20.6321Z" fill="black"/>
<rect width="27" height="27" rx="3" fill="#503E9D"/>
<path d="M10.5614 14.066C10.3827 14.2214 10.1783 14.3932 9.96193 14.5751C8.366 15.9167 6.18031 17.754 6.18031 19.6852V20.8473C6.18031 22.0875 7.18928 23.0964 8.42946 23.0964H18.5507C19.7908 23.0964 20.7998 22.0875 20.7998 20.8473V19.6852C20.7998 17.754 18.6141 15.9167 17.0182 14.5751C16.8018 14.3932 16.5975 14.2214 16.4188 14.066C16.2489 13.9182 16.1516 13.712 16.1516 13.5C16.1516 13.2881 16.2489 13.0818 16.4187 12.9341C16.5974 12.7787 16.8018 12.6069 17.0182 12.425C18.6141 11.0834 20.7998 9.24611 20.7998 7.31488V6.15282C20.7998 4.91263 19.7908 3.90366 18.5507 3.90366H8.42946C7.18928 3.90366 6.18031 4.91263 6.18031 6.15282C6.18031 6.56688 6.51596 6.90253 6.93003 6.90253C7.3441 6.90253 7.67975 6.56688 7.67975 6.15282C7.67975 5.73942 8.01607 5.4031 8.42946 5.4031H18.5507C18.964 5.4031 19.3004 5.73942 19.3004 6.15282V7.31488C19.3004 8.54771 17.2678 10.2563 16.0533 11.2772C15.832 11.4633 15.6228 11.6391 15.4346 11.8029C14.9373 12.2355 14.6521 12.8541 14.6521 13.5C14.6521 14.146 14.9373 14.7645 15.4346 15.1972C15.6229 15.361 15.832 15.5368 16.0533 15.7229C17.2678 16.7438 19.3004 18.4524 19.3004 19.6852V20.8473C19.3004 21.2607 18.964 21.597 18.5507 21.597H8.42946C8.01607 21.597 7.67975 21.2607 7.67975 20.8473V19.6852C7.67975 18.4524 9.71234 16.7438 10.9268 15.7229C11.1481 15.5368 11.3573 15.361 11.5456 15.1971C12.0428 14.7645 12.328 14.1459 12.328 13.5C12.328 12.8541 12.0428 12.2355 11.5456 11.8029C11.3493 11.6322 11.1307 11.4492 10.8991 11.2554C10.1698 10.6449 9.34311 9.95295 8.69063 9.21672C8.41601 8.90687 7.94222 8.87838 7.63229 9.15292C7.32243 9.42758 7.29387 9.90137 7.56849 10.2113C8.29508 11.031 9.20531 11.7929 9.93674 12.4052C10.1626 12.5942 10.376 12.7728 10.5614 12.9341C10.7312 13.0819 10.8286 13.2881 10.8286 13.5C10.8286 13.712 10.7312 13.9183 10.5614 14.066Z" fill="white"/>
</svg>
