<svg width="14" height="14" viewBox="0 0 14 14" fill="none" xmlns="http://www.w3.org/2000/svg">
<path d="M12.7883 13.633H1.21172C0.774557 13.633 0.382669 13.4071 0.163446 13.0289C-0.0512913 12.6584 -0.0545739 12.2214 0.154418 11.8298L5.94274 0.987027C6.15001 0.59875 6.54526 0.366943 6.99999 0.366943C7.45474 0.366943 7.84996 0.59875 8.05726 0.987027L13.8456 11.8298C14.0546 12.2213 14.0513 12.6584 13.8365 13.0289C13.6173 13.4071 13.2255 13.633 12.7883 13.633Z" fill="#FF4C04"/>
<path d="M13.8456 11.8298L8.05727 0.987027C7.84998 0.59875 7.45475 0.366943 7 0.366943V13.633H12.7883C13.2255 13.633 13.6174 13.4071 13.8365 13.0289C14.0513 12.6584 14.0546 12.2213 13.8456 11.8298Z" fill="#E10000"/>
<path d="M7.00045 11.8554C6.39711 11.8554 5.90625 11.3645 5.90625 10.7612C5.90625 10.1579 6.39711 9.66699 7.00045 9.66699C7.60379 9.66699 8.09465 10.1579 8.09465 10.7612C8.09465 11.3645 7.60379 11.8554 7.00045 11.8554Z" fill="#FFF3F3"/>
<path d="M7.00048 8.57292C6.39711 8.57292 5.90625 8.08206 5.90625 7.47872V5.11251C5.90625 4.50917 6.39711 4.01831 7.00045 4.01831C7.60379 4.01831 8.09465 4.50917 8.09465 5.11251V7.47872C8.09465 8.08206 7.60382 8.57292 7.00048 8.57292Z" fill="#FFF3F3"/>
<path d="M7.00003 4.01831H7V8.57292H7.00005C7.6034 8.57292 8.09423 8.08206 8.09423 7.47872V5.11251C8.09423 4.5092 7.60337 4.01831 7.00003 4.01831Z" fill="#DAD0CB"/>
<path d="M7.00003 9.66699H7V11.8554H7.00003C7.60337 11.8554 8.09423 11.3645 8.09423 10.7612C8.09423 10.1579 7.60337 9.66699 7.00003 9.66699Z" fill="#DAD0CB"/>
</svg>
