<svg width="18" height="18" viewBox="0 0 18 18" fill="none" xmlns="http://www.w3.org/2000/svg">
<path d="M8.99982 0C4.03709 0 0 4.0374 0 9C0 13.9626 4.03709 18 8.99982 18C13.9626 18 18 13.9626 18 9C18 4.0374 13.9626 0 8.99982 0ZM8.99982 16.8197C4.6881 16.8197 1.18035 13.3117 1.18035 9C1.18035 4.68824 4.68806 1.1804 8.99982 1.1804C13.3116 1.1804 16.8195 4.68828 16.8195 9C16.8196 13.3117 13.3115 16.8197 8.99982 16.8197Z" fill="#65AA1A"/>
<path d="M12.2588 6.05356L7.61787 10.6942L5.74187 8.81862C5.51133 8.58836 5.13788 8.58822 4.90734 8.81876C4.67672 9.04938 4.67672 9.42288 4.90734 9.65342L7.20068 11.9464C7.31592 12.0615 7.4669 12.1191 7.61787 12.1191C7.76885 12.1191 7.92023 12.0615 8.03543 11.9462C8.03579 11.9457 8.03606 11.9452 8.03664 11.9446L13.0933 6.88808C13.3239 6.65768 13.3239 6.28391 13.0933 6.05351C12.8628 5.82298 12.489 5.82298 12.2588 6.05356Z" fill="#65AA1A"/>
</svg>
