<svg width="43" height="43" viewBox="0 0 43 43" fill="none" xmlns="http://www.w3.org/2000/svg">
<g clip-path="url(#clip0)">
<path d="M37.8749 11.8993C37.0084 12.3185 36.6459 13.3612 37.0651 14.2273C38.2103 16.5931 38.7908 19.1432 38.7908 21.8095C38.7908 31.4214 30.9707 39.2415 21.3588 39.2415C11.747 39.2415 3.92683 31.4214 3.92683 21.8095C3.92683 12.1976 11.747 4.37751 21.3588 4.37751C25.3419 4.37751 29.0836 5.6781 32.1806 8.13841C32.9318 8.73806 34.0302 8.61251 34.6299 7.8588C35.2295 7.10551 35.104 6.00836 34.3498 5.40956C30.6834 2.49557 26.0696 0.891113 21.3588 0.891113C9.82502 0.891113 0.44043 10.2757 0.44043 21.8095C0.44043 33.3433 9.82502 42.7279 21.3588 42.7279C32.8926 42.7279 42.2772 33.3433 42.2772 21.8095C42.2772 18.6133 41.5792 15.5504 40.2029 12.7092C39.7845 11.841 38.7385 11.4793 37.8749 11.8993Z" fill="white"/>
<path d="M21.3584 7.86401C20.3962 7.86401 19.6152 8.64496 19.6152 9.60721V21.8096C19.6152 22.7719 20.3962 23.5528 21.3584 23.5528H30.0744C31.0367 23.5528 31.8176 22.7719 31.8176 21.8096C31.8176 20.8474 31.0367 20.0664 30.0744 20.0664H23.1016V9.60721C23.1016 8.64496 22.3207 7.86401 21.3584 7.86401Z" fill="white"/>
</g>
<defs>
<clipPath id="clip0">
<rect width="41.8368" height="41.8368" fill="white" transform="translate(0.44043 0.891113)"/>
</clipPath>
</defs>
</svg>
