<svg width="12" height="12" viewBox="0 0 12 12" fill="none" xmlns="http://www.w3.org/2000/svg">
<path d="M11.6811 11.4887C11.2557 11.9141 10.5661 11.9141 10.1407 11.4887L6.09623 7.44427L1.85949 11.6809C1.43408 12.1064 0.744479 12.1064 0.319062 11.6809C-0.106354 11.2555 -0.106354 10.5659 0.319062 10.1405L4.5558 5.90386L0.511344 1.85947C0.0859276 1.43406 0.0859276 0.743923 0.511344 0.319058C0.93676 -0.106353 1.62636 -0.106353 2.05178 0.319058L6.09623 4.36345L9.94785 0.511881C10.3733 0.086471 11.0629 0.086471 11.4883 0.511881C11.9137 0.937292 11.9137 1.62688 11.4883 2.05229L7.63666 5.90386L11.6811 9.94825C12.1065 10.3737 12.1065 11.0633 11.6811 11.4887Z" fill="#F7C149"/>
</svg>
