<svg width="26" height="42" viewBox="0 0 26 42" fill="none" xmlns="http://www.w3.org/2000/svg">
<path d="M25.157 14.4323C25.0175 14.1535 24.8083 14.014 24.5294 14.014H16.3016L24.4597 1.11428C24.5992 0.905095 24.5992 0.62621 24.4597 0.417026C24.3202 0.207843 24.1111 0.0683594 23.8322 0.0683594H12.6757C12.3968 0.0683594 12.1877 0.207843 12.0482 0.417026L1.58899 21.3354C1.4495 21.5446 1.4495 21.8235 1.58899 22.0327C1.72847 22.2418 2.00736 22.3813 2.21654 22.3813H9.39849L1.58899 40.9987C1.4495 41.2776 1.58899 41.6262 1.86787 41.8354C1.93757 41.9051 2.07706 41.9051 2.21654 41.9051C2.42572 41.9051 2.63491 41.8354 2.77439 41.6959L25.0874 15.1993C25.2268 14.9901 25.2965 14.7112 25.157 14.4323ZM4.65696 37.2334L11.072 21.8933C11.1417 21.6841 11.1417 21.4749 11.0023 21.2657C10.8628 21.1262 10.6536 20.9868 10.4444 20.9868H3.33216L13.0941 1.46295H22.5771L14.3492 14.3626C14.2097 14.5717 14.2097 14.8506 14.3492 15.0598C14.4887 15.269 14.6979 15.4085 14.9768 15.4085H23.0652L4.65696 37.2334Z" fill="white" stroke="white"/>
</svg>
