<svg width="37" height="44" viewBox="0 0 37 44" fill="none" xmlns="http://www.w3.org/2000/svg">
<path fill-rule="evenodd" clip-rule="evenodd" d="M26.7679 0.666016C25.4029 0.666016 24.2924 1.80386 24.2924 3.20236C24.2924 3.78247 24.4839 4.31739 24.805 4.74513L18.7526 12.6267C18.4173 12.4526 18.0386 12.3538 17.6377 12.3538C17.043 12.3538 16.4966 12.5699 16.0693 12.9293L12.5937 10.1069C12.7668 9.76075 12.8651 9.36911 12.8651 8.95424C12.8651 7.55566 11.7546 6.41789 10.3896 6.41789C9.02463 6.41789 7.91406 7.55574 7.91406 8.95424C7.91406 9.42424 8.03996 9.8646 8.25832 10.2425L4.47823 13.7362C4.09239 13.4815 3.63364 13.333 3.14155 13.333C1.7765 13.333 0.666016 14.4709 0.666016 15.8694C0.666016 17.2679 1.77658 18.4057 3.14155 18.4057C4.50652 18.4057 5.61709 17.2679 5.61709 15.8694C5.61709 15.4287 5.50661 15.014 5.31287 14.6525L9.12207 11.1318C9.49299 11.3596 9.92653 11.4907 10.3895 11.4907C10.9064 11.4907 11.3867 11.3273 11.7841 11.0487L15.3434 13.9391C15.2268 14.233 15.1621 14.5539 15.1621 14.8902C15.1621 16.2888 16.2727 17.4266 17.6376 17.4266C19.0026 17.4266 20.1132 16.2887 20.1132 14.8902C20.1132 14.3566 19.9511 13.8611 19.6752 13.4521L25.7658 5.52082C26.0724 5.6605 26.4114 5.73878 26.768 5.73878C28.1331 5.73878 29.2436 4.60094 29.2436 3.20244C29.2435 1.80394 28.133 0.666016 26.7679 0.666016ZM3.14172 17.1524C2.45108 17.1524 1.88935 16.5768 1.88935 15.8693C1.88935 15.1618 2.45116 14.5862 3.14172 14.5862C3.83227 14.5862 4.39408 15.1618 4.39408 15.8693C4.39408 16.5768 3.83227 17.1524 3.14172 17.1524ZM9.13679 8.9542C9.13679 9.66172 9.6986 10.2373 10.3892 10.2373C11.0797 10.2373 11.6415 9.66172 11.6415 8.9542C11.6415 8.24668 11.0797 7.67108 10.3892 7.67108C9.69852 7.67108 9.13679 8.24668 9.13679 8.9542ZM17.6374 16.1732C16.9468 16.1732 16.385 15.5976 16.385 14.8901C16.385 14.1826 16.9467 13.607 17.6374 13.607C18.3279 13.607 18.8897 14.1826 18.8897 14.8901C18.8897 15.5976 18.3278 16.1732 17.6374 16.1732ZM25.5148 3.20236C25.5148 3.90988 26.0766 4.48549 26.7672 4.48549C27.4578 4.48549 28.0196 3.9098 28.0196 3.20236C28.0196 2.49484 27.4578 1.91924 26.7672 1.91924C26.0766 1.91924 25.5148 2.49484 25.5148 3.20236Z" fill="white"/>
<path d="M24.805 4.74513L25.0032 4.89739L25.1188 4.74686L25.0049 4.59506L24.805 4.74513ZM18.7526 12.6267L18.6374 12.8485L18.8233 12.9451L18.9509 12.7789L18.7526 12.6267ZM16.0693 12.9293L15.9117 13.1234L16.0721 13.2537L16.2302 13.1207L16.0693 12.9293ZM12.5937 10.1069L12.3701 9.99504L12.2804 10.1745L12.4361 10.3009L12.5937 10.1069ZM8.25832 10.2425L8.428 10.4261L8.57477 10.2904L8.47477 10.1174L8.25832 10.2425ZM4.47823 13.7362L4.3405 13.9448L4.50402 14.0528L4.64792 13.9198L4.47823 13.7362ZM5.31287 14.6525L5.14318 14.4689L5.00117 14.6001L5.09252 14.7706L5.31287 14.6525ZM9.12207 11.1318L9.25287 10.9188L9.09147 10.8197L8.95238 10.9483L9.12207 11.1318ZM11.7841 11.0487L11.9417 10.8547L11.7951 10.7357L11.6406 10.844L11.7841 11.0487ZM15.3434 13.9391L15.5758 14.0313L15.6434 13.8607L15.501 13.745L15.3434 13.9391ZM19.6752 13.4521L19.4769 13.2998L19.3673 13.4426L19.468 13.5918L19.6752 13.4521ZM25.7658 5.52082L25.8695 5.29332L25.6886 5.21091L25.5675 5.36855L25.7658 5.52082ZM29.2436 3.20244H29.4936V3.20243L29.2436 3.20244ZM24.5424 3.20236C24.5424 1.93617 25.5466 0.916016 26.7679 0.916016V0.416016C25.2591 0.416016 24.0424 1.67155 24.0424 3.20236H24.5424ZM25.0049 4.59506C24.7154 4.20925 24.5424 3.72667 24.5424 3.20236H24.0424C24.0424 3.83827 24.2525 4.42554 24.605 4.8952L25.0049 4.59506ZM18.9509 12.7789L25.0032 4.89739L24.6067 4.59287L18.5543 12.4744L18.9509 12.7789ZM17.6377 12.6038C17.997 12.6038 18.3364 12.6922 18.6374 12.8485L18.8678 12.4048C18.4983 12.2129 18.0802 12.1038 17.6377 12.1038V12.6038ZM16.2302 13.1207C16.6148 12.7972 17.1048 12.6038 17.6377 12.6038V12.1038C16.9811 12.1038 16.3784 12.3427 15.9084 12.738L16.2302 13.1207ZM12.4361 10.3009L15.9117 13.1234L16.2269 12.7353L12.7513 9.9128L12.4361 10.3009ZM12.6151 8.95424C12.6151 9.32921 12.5263 9.68267 12.3701 9.99504L12.8173 10.2187C13.0073 9.83883 13.1151 9.409 13.1151 8.95424H12.6151ZM10.3896 6.66789C11.6108 6.66789 12.6151 7.68798 12.6151 8.95424H13.1151C13.1151 7.42333 11.8983 6.16789 10.3896 6.16789V6.66789ZM8.16406 8.95424C8.16406 7.68806 9.16838 6.66789 10.3896 6.66789V6.16789C8.88087 6.16789 7.66406 7.42342 7.66406 8.95424H8.16406ZM8.47477 10.1174C8.27777 9.77646 8.16406 9.3791 8.16406 8.95424H7.66406C7.66406 9.46938 7.80215 9.95273 8.04186 10.3675L8.47477 10.1174ZM4.64792 13.9198L8.428 10.4261L8.08863 10.0589L4.30854 13.5526L4.64792 13.9198ZM3.14155 13.583C3.58249 13.583 3.99366 13.7159 4.3405 13.9448L4.61596 13.5276C4.19111 13.2471 3.6848 13.083 3.14155 13.083V13.583ZM0.916016 15.8694C0.916016 14.6032 1.92026 13.583 3.14155 13.583V13.083C1.63274 13.083 0.416016 14.3385 0.416016 15.8694H0.916016ZM3.14155 18.1557C1.92034 18.1557 0.916016 17.1355 0.916016 15.8694H0.416016C0.416016 17.4002 1.63283 18.6557 3.14155 18.6557V18.1557ZM5.36709 15.8694C5.36709 17.1355 4.36277 18.1557 3.14155 18.1557V18.6557C4.65028 18.6557 5.86709 17.4002 5.86709 15.8694H5.36709ZM5.09252 14.7706C5.26727 15.0966 5.36709 15.4709 5.36709 15.8694H5.86709C5.86709 15.3865 5.74594 14.9313 5.53322 14.5344L5.09252 14.7706ZM8.95238 10.9483L5.14318 14.4689L5.48255 14.8361L9.29175 11.3154L8.95238 10.9483ZM10.3895 11.2407C9.97449 11.2407 9.58599 11.1233 9.25287 10.9188L8.99126 11.3449C9.39999 11.5958 9.87858 11.7407 10.3895 11.7407V11.2407ZM11.6406 10.844C11.2833 11.0945 10.8527 11.2407 10.3895 11.2407V11.7407C10.96 11.7407 11.49 11.5602 11.9276 11.2534L11.6406 10.844ZM15.501 13.745L11.9417 10.8547L11.6265 11.2428L15.1858 14.1332L15.501 13.745ZM15.4121 14.8902C15.4121 14.5862 15.4706 14.2966 15.5758 14.0313L15.111 13.847C14.9831 14.1695 14.9121 14.5216 14.9121 14.8902H15.4121ZM17.6376 17.1766C16.4164 17.1766 15.4121 16.1565 15.4121 14.8902H14.9121C14.9121 16.4211 16.1289 17.6766 17.6376 17.6766V17.1766ZM19.8632 14.8902C19.8632 16.1564 18.8589 17.1766 17.6376 17.1766V17.6766C19.1464 17.6766 20.3632 16.4211 20.3632 14.8902H19.8632ZM19.468 13.5918C19.7168 13.9608 19.8632 14.4078 19.8632 14.8902H20.3632C20.3632 14.3053 20.1854 13.7614 19.8825 13.3123L19.468 13.5918ZM25.5675 5.36855L19.4769 13.2998L19.8735 13.6043L25.9641 5.67308L25.5675 5.36855ZM26.768 5.48878C26.4484 5.48878 26.1447 5.41869 25.8695 5.29332L25.6622 5.74832C26.0002 5.90231 26.3744 5.98878 26.768 5.98878V5.48878ZM28.9936 3.20244C28.9936 4.46862 27.9893 5.48878 26.768 5.48878V5.98878C28.2768 5.98878 29.4936 4.73325 29.4936 3.20244H28.9936ZM26.7679 0.916016C27.9892 0.916016 28.9935 1.93625 28.9936 3.20245L29.4936 3.20243C29.4935 1.67164 28.2768 0.416016 26.7679 0.416016V0.916016ZM1.63935 15.8693C1.63935 16.7091 2.30731 17.4024 3.14172 17.4024V16.9024C2.59484 16.9024 2.13935 16.4445 2.13935 15.8693H1.63935ZM3.14172 14.3362C2.3074 14.3362 1.63935 15.0295 1.63935 15.8693H2.13935C2.13935 15.2941 2.59491 14.8362 3.14172 14.8362V14.3362ZM4.64408 15.8693C4.64408 15.0295 3.97603 14.3362 3.14172 14.3362V14.8362C3.68852 14.8362 4.14408 15.2941 4.14408 15.8693H4.64408ZM3.14172 17.4024C3.97603 17.4024 4.64408 16.7091 4.64408 15.8693H4.14408C4.14408 16.4445 3.68852 16.9024 3.14172 16.9024V17.4024ZM10.3892 9.98732C9.84235 9.98732 9.38679 9.5294 9.38679 8.9542H8.88679C8.88679 9.79404 9.55484 10.4873 10.3892 10.4873V9.98732ZM11.3915 8.9542C11.3915 9.5294 10.936 9.98732 10.3892 9.98732V10.4873C11.2235 10.4873 11.8915 9.79404 11.8915 8.9542H11.3915ZM10.3892 7.92108C10.936 7.92108 11.3915 8.379 11.3915 8.9542H11.8915C11.8915 8.11436 11.2235 7.42108 10.3892 7.42108V7.92108ZM9.38679 8.9542C9.38679 8.37899 9.84228 7.92108 10.3892 7.92108V7.42108C9.55475 7.42108 8.88679 8.11437 8.88679 8.9542H9.38679ZM16.135 14.8901C16.135 15.7299 16.803 16.4232 17.6374 16.4232V15.9232C17.0906 15.9232 16.635 15.4653 16.635 14.8901H16.135ZM17.6374 13.357C16.8029 13.357 16.135 14.0503 16.135 14.8901H16.635C16.635 14.3149 17.0905 13.857 17.6374 13.857V13.357ZM19.1397 14.8901C19.1397 14.0502 18.4717 13.357 17.6374 13.357V13.857C18.1842 13.857 18.6397 14.3149 18.6397 14.8901H19.1397ZM17.6374 16.4232C18.4716 16.4232 19.1397 15.7299 19.1397 14.8901H18.6397C18.6397 15.4653 18.1841 15.9232 17.6374 15.9232V16.4232ZM26.7672 4.23549C26.2204 4.23549 25.7648 3.77756 25.7648 3.20236H25.2648C25.2648 4.0422 25.9329 4.73549 26.7672 4.73549V4.23549ZM27.7696 3.20236C27.7696 3.77749 27.314 4.23549 26.7672 4.23549V4.73549C27.6015 4.73549 28.2696 4.0421 28.2696 3.20236H27.7696ZM26.7672 2.16924C27.3141 2.16924 27.7696 2.62715 27.7696 3.20236H28.2696C28.2696 2.36254 27.6016 1.66924 26.7672 1.66924V2.16924ZM25.7648 3.20236C25.7648 2.62715 26.2203 2.16924 26.7672 2.16924V1.66924C25.9328 1.66924 25.2648 2.36254 25.2648 3.20236H25.7648Z" fill="white"/>
<path d="M35.103 22.7261C34.1515 22.1601 32.76 22.2075 31.7928 23.5871L29.4853 26.6905V19.9046C29.4853 19.5586 29.2115 19.2781 28.8738 19.2781C28.536 19.2781 28.2622 19.5586 28.2622 19.9046V28.5472C28.2622 29.1451 29.0065 29.4027 29.3603 28.9269L32.7714 24.3391C32.7751 24.334 32.7789 24.3289 32.7825 24.3236C33.3381 23.5268 34.0282 23.5357 34.4888 23.8098C34.9474 24.0827 35.3001 24.6894 34.9909 25.3768C34.9892 25.3806 34.9874 25.3844 34.9858 25.3883L31.4515 33.6751C30.8491 34.9542 30.1242 35.557 29.1342 36.5617C28.2561 37.4527 28.2153 38.986 28.2426 40.2652C28.2564 40.9053 28.272 41.631 27.9688 41.9485C27.8181 42.1064 27.553 42.1864 27.181 42.1864H24.2375C23.8998 42.1864 23.626 42.467 23.626 42.813C23.626 43.159 23.8998 43.4396 24.2375 43.4396H27.181C27.8945 43.4396 28.4537 43.2327 28.8431 42.8248C29.5061 42.1303 29.4835 41.0808 29.4653 40.2376C29.4481 39.4356 29.4388 38.0163 29.9948 37.4522C30.9855 36.4468 31.903 35.6604 32.5625 34.199C32.5644 34.1949 32.5663 34.1906 32.5681 34.1863L36.1042 25.8955C36.7011 24.5608 36.0529 23.2914 35.103 22.7261Z" fill="white" stroke="white" stroke-width="0.5"/>
<path d="M27.0841 8.00049C27.0836 8.00049 27.0832 8.00049 27.0827 8.00049C25.756 8.00049 24.6759 9.10583 24.675 10.4651C24.6741 11.6652 24.6741 11.3294 24.6742 19.5667C24.319 19.3543 23.906 19.2326 23.466 19.2326C22.6297 19.2326 21.8918 19.6722 21.4606 20.3377C21.0375 19.9584 20.4838 19.7284 19.8789 19.7284C19.075 19.7284 18.362 20.1345 17.9251 20.757C17.4959 20.3496 16.9217 20.1002 16.2919 20.1002C14.9657 20.1002 13.8867 21.2057 13.8867 22.5645C13.8867 27.7757 13.8873 32.3601 13.8867 33.1956C13.8835 36.7507 16.4597 36.6681 16.4583 38.9323L16.4573 41.021C16.4573 42.3921 17.1852 43.2949 18.4042 43.4359C18.427 43.4386 18.4499 43.4398 18.4728 43.4398H21.3826C21.7203 43.4398 21.9941 43.1593 21.9941 42.8133C21.9941 42.4672 21.7203 42.1867 21.3826 42.1867H18.5099C17.9366 42.1088 17.6804 41.7479 17.6804 41.0214L17.6814 38.9331C17.6833 35.9285 15.1071 36.2058 15.1098 33.1968C15.1167 23.6008 15.1098 25.9621 15.1098 22.5646C15.1098 21.897 15.64 21.3536 16.2918 21.3536C16.9436 21.3536 17.4738 21.8968 17.4738 22.5646V26.175C17.4738 26.521 17.7476 26.8016 18.0854 26.8016C18.4231 26.8016 18.6969 26.521 18.6969 26.175V22.5646V22.1929C18.6969 21.5252 19.2271 20.9819 19.8789 20.9819C20.5307 20.9819 21.0609 21.525 21.0609 22.1929V26.1749C21.0609 26.521 21.3347 26.8015 21.6724 26.8015C22.0102 26.8015 22.284 26.521 22.284 26.1749C22.284 25.7526 22.284 22.3098 22.284 21.6972C22.284 21.0295 22.8142 20.4862 23.466 20.4862C24.1177 20.4861 24.6741 21.0294 24.6741 21.6972C24.6741 24.7685 24.6741 23.3846 24.6741 26.1749C24.6741 26.521 24.948 26.8015 25.2857 26.8015C25.6234 26.8015 25.8972 26.521 25.8972 26.1749C25.8972 11.0081 25.8969 11.9983 25.898 10.4665C25.8985 9.7979 26.4297 9.25412 27.0823 9.25412C27.0826 9.25412 27.0828 9.25412 27.0831 9.25412C27.7331 9.25471 28.2617 9.79932 28.2612 10.4687V16.9809C28.2612 17.3269 28.535 17.6074 28.8727 17.6074C29.2104 17.6074 29.4842 17.3269 29.4842 16.9809V10.4692C29.4855 9.10893 28.4088 8.00166 27.0841 8.00049Z" fill="white" stroke="white" stroke-width="0.5"/>
</svg>
