<?xml version="1.0" encoding="utf-8"?>
<!-- Generator: Adobe Illustrator 22.0.0, SVG Export Plug-In . SVG Version: 6.00 Build 0)  -->
<svg version="1.1" id="Layer_1" xmlns="http://www.w3.org/2000/svg" xmlns:xlink="http://www.w3.org/1999/xlink" x="0px" y="0px"
	 viewBox="0 0 492 289" style="enable-background:new 0 0 492 289;" xml:space="preserve">
<style type="text/css">
	.st0{fill:#FFFFFF;}
</style>
<g>
	<g>
		<path class="st0" d="M226.8,8L7.9,226.9C2.8,232,0,238.7,0,245.9s2.8,14,7.9,19L24,281.1c10.5,10.5,27.6,10.5,38.1,0L245.9,97.2
			L430,281.3c5.1,5.1,11.8,7.9,19,7.9c7.2,0,14-2.8,19-7.9l16.1-16.1c5.1-5.1,7.9-11.8,7.9-19s-2.8-14-7.9-19L265,8
			c-5.1-5.1-11.9-7.9-19.1-7.8C238.7,0.1,231.9,2.9,226.8,8z"/>
	</g>
</g>
</svg>
